<svg xmlns="http://www.w3.org/2000/svg" enable-background="new 0 0 500 500" viewBox="0 0 500 500" id="coffee-bean">
  <path fill="#333" d="M159.741 30.904c-43.693 7.911-71.672 55.435-58.576 127.769 13.095 72.33 56.432 109.638 100.126 101.727 43.695-7.909 71.2-58.044 58.105-130.375C246.299 57.691 203.436 22.993 159.741 30.904zM177.175 143.001c11.231-33.207-20.599-80.328-20.599-80.328 14.415 2.24 62.359 53.544 38.147 96.896-24.213 43.349 7.469 73.221 7.469 73.221C167.347 217.054 165.944 176.206 177.175 143.001zM186.029 308.067c-60.514-41.733-115.343-35.82-140.555.733-25.209 36.556-11.253 89.907 49.26 131.642 60.512 41.732 117.525 37.325 142.734.771C262.679 404.659 246.54 349.801 186.029 308.067zM218.531 421.101c-35.731 13.602-65.677-14.213-81.296-45.594-15.619-31.384-71.473-42.055-71.473-42.055 11.755-8.638 81.94-6.44 95.594 41.299C175.01 422.49 218.531 421.101 218.531 421.101zM404.32 145.11c-41.37-16.133-90.087 9.712-116.794 78.198-26.707 68.483-9.313 122.957 32.056 139.09 41.371 16.134 91.05-12.184 117.758-80.666C464.046 213.247 445.689 161.245 404.32 145.11zM366.77 273.049c-43.322 24.259-31.967 66.297-31.967 66.297-21.451-31.649-1.263-67.185 25.688-89.6 26.953-22.414 24.5-79.226 24.5-79.226C396.101 179.977 410.093 248.788 366.77 273.049z"></path>
</svg>
