<svg xmlns="http://www.w3.org/2000/svg" fill-rule="evenodd" stroke-linejoin="round" stroke-miterlimit="2" clip-rule="evenodd" viewBox="0 0 64 64" id="delivery-bike">
  <g transform="translate(-64 -192)">
    <path fill="#ff6c5c" d="M608,226C608,225.47 607.789,224.961 607.414,224.586C607.039,224.211 606.53,224 606,224C600.846,224 587.154,224 582,224C581.47,224 580.961,224.211 580.586,224.586C580.211,224.961 580,225.47 580,226C580,226.53 580.211,227.039 580.586,227.414C580.961,227.789 581.47,228 582,228C588.406,228 608,228 608,228L608,226Z" transform="translate(-512)"></path>
    <path fill="#ffce4b" d="M596,210C596,208.895 595.105,208 594,208L582,208C580.895,208 580,208.895 580,210L580,222C580,223.105 580.895,224 582,224L594,224C595.105,224 596,223.105 596,222L596,210Z" transform="translate(-512)"></path>
    <path fill="#f9b32f" d="M590 208L586 208 586 211C586 211.552 586.448 212 587 212L589 212C589.552 212 590 211.552 590 211L590 208zM588 221L592 221C592.552 221 593 220.552 593 220 593 219.448 592.552 219 592 219L588 219C587.448 219 587 219.448 587 220 587 220.552 587.448 221 588 221z" transform="translate(-512)"></path>
    <path fill="#ffce4b" d="M620,235.172C620,235.702 619.789,236.211 619.414,236.586C618.266,237.734 615.734,240.266 614.586,241.414C614.211,241.789 613.702,242 613.172,242C611.836,242 609.354,242 609.354,242C608.536,242 607.801,241.502 607.497,240.743C606.868,239.17 605.776,236.441 604.98,234.449C604.385,232.963 604.734,231.266 605.865,230.135C606.908,229.092 608,228 608,228L590,228C584.477,228 580,232.477 580,238C580,241.095 580,243.766 580,244C580,244.53 580.211,245.039 580.586,245.414C580.961,245.789 581.47,246 582,246L628,246L624,220L620,220L620,235.172Z" transform="translate(-512)"></path>
    <circle cx="330" cy="246" r="6" fill="#4d5a6a" transform="translate(-250)"></circle>
    <circle cx="330" cy="246" r="2" fill="#e0e0e0" transform="translate(-250)"></circle>
    <path fill="#ff6c5c" d="M600,244C600,239.582 596.418,236 592,236C592,236 592,236 592,236C587.582,236 584,239.582 584,244L584,244C584,245.105 584.895,246 586,246C589.074,246 594.926,246 598,246C599.105,246 600,245.105 600,244C600,244 600,244 600,244Z" transform="translate(-512)"></path>
    <circle cx="330" cy="246" r="6" fill="#4d5a6a" transform="translate(-214)"></circle>
    <circle cx="330" cy="246" r="2" fill="#e0e0e0" transform="translate(-214)"></circle>
    <path fill="#ff6c5c" d="M600,244C600,239.582 596.418,236 592,236C592,236 592,236 592,236C587.582,236 584,239.582 584,244L584,244C584,245.105 584.895,246 586,246C589.074,246 594.926,246 598,246C599.105,246 600,245.105 600,244C600,244 600,244 600,244Z" transform="translate(-476)"></path>
    <path fill="#ff6c5c" d="M630,214C630,212.895 629.105,212 628,212C626.939,212 625.922,212.421 625.172,213.172C624.421,213.922 624,214.939 624,216C624,216 624,216 624,216C624,217.061 624.421,218.078 625.172,218.828C625.922,219.579 626.939,220 628,220C629.105,220 630,219.105 630,218C630,216.778 630,215.222 630,214Z" transform="translate(-512 2)"></path>
    <path fill="#4d5a6a" d="M624.536,216L618,216C617.47,216 616.961,216.211 616.586,216.586C616.211,216.961 616,217.47 616,218C616,218.53 616.211,219.039 616.586,219.414C616.961,219.789 617.47,220 618,220L624.536,220C624.188,219.397 624,218.708 624,218C624,218 624,218 624,218C624,217.292 624.188,216.603 624.536,216Z" transform="translate(-512)"></path>
    <path fill="#ff6c5c" d="M608,212C608,210.939 607.579,209.922 606.828,209.172C606.078,208.421 605.061,208 604,208C602.713,208 601.287,208 600,208C598.939,208 597.922,208.421 597.172,209.172C596.421,209.922 596,210.939 596,212C596,215.184 596,219.506 596,222C596,223.105 596.895,224 598,224C600.22,224 603.78,224 606,224C607.105,224 608,223.105 608,222C608,219.506 608,215.184 608,212Z" transform="translate(-512)"></path>
    <path fill="#4d5a6a" d="M596,222C596,223.105 596.895,224 598,224C600.918,224 606,224 606,224C607.105,224 608,224.895 608,226C608,231.303 608,238 608,238L612,238C612,238 612,231.303 612,226C612,222.686 609.314,220 606,220C604.432,220 596,220 596,220C596,220 596,221 596,222Z" transform="translate(-512)"></path>
    <path fill="#ffce4b" d="M600,214C600,215.591 600.632,217.117 601.757,218.243C602.883,219.368 604.409,220 606,220C609.49,220 614,220 614,220C615.104,220 616,219.104 616,218C616,216.896 615.104,216 614,216C614,216 609.49,216 606,216C605.47,216 604.961,215.789 604.586,215.414C604.211,215.039 604,214.53 604,214C604,212.896 603.104,212 602,212C600.896,212 600,212.896 600,214Z" transform="translate(-512)"></path>
    <path fill="#ff6c5c" d="M602,208C598.689,208 596,205.311 596,202C596,198.689 598.689,196 602,196C604.905,196 607.33,198.068 607.882,200.812C607.938,201.101 607.862,201.4 607.675,201.627C607.488,201.854 607.209,201.986 606.914,201.986C606.103,202 604.973,202 604,202C602.895,202 602,202.895 602,204L602,208Z" transform="translate(-512)"></path>
    <path fill="#ffdcb6" d="M606,202L604,202C602.895,202 602,202.895 602,204C602,205.745 602,208 602,208L604,208C605.105,208 606,207.105 606,206C606,204.255 606,202 606,202Z" transform="translate(-512)"></path>
    <path fill="#ff6c5c" d="M608,241.472C608.362,241.805 608.842,242 609.354,242C609.354,242 611.836,242 613.172,242C613.702,242 614.211,241.789 614.586,241.414L616,240C616,238.895 615.105,238 614,238C612.255,238 608,238 608,238L608,241.472Z" transform="translate(-512)"></path>
  </g>
</svg>
