<svg xmlns="http://www.w3.org/2000/svg" id="milk" enable-background="new 0 0 256 256" version="1" viewBox="0 0 256 256">
  <polygon fill="#54a9be" points="192.9 64.1 162.3 34.2 162.3 16.9 94.8 8 94.8 24.8 63.5 64.1 63.5 100 63.5 184.1 63.5 221.9 131.4 248 192.9 230.6 192.9 190.4 192.9 100 192.9 64.1"></polygon>
  <polygon fill="#ebebeb" points="63.1 64.1 131 75.9 131 248 63.1 221.9"></polygon>
  <polygon fill="#80bfcf" points="63.1 100 131 111.8 131 205.4 63.1 184.1"></polygon>
  <polygon fill="#dedede" points="131 75.9 192.5 64.1 192.5 230.6 131 248"></polygon>
  <polygon fill="#54a9be" points="131 111.8 192.5 100 192.5 190.4 131 205.4"></polygon>
  <polygon fill="#a3d0dc" points="131 75.9 161.9 34.2 94.4 24.8 63.1 64.1"></polygon>
  <polygon fill="#bddde6" points="161.9 34.2 161.9 16.9 94.4 8 94.4 24.8"></polygon>
  <polygon fill="#3c9db5" points="161.9 34.2 192.5 64.1 131 75.9"></polygon>
  <polygon fill="#54a9be" points="161.9 34.2 155.2 43.3 181.1 66.3 192.5 64.1"></polygon>
</svg>
